# This file uses centimeters as units for non-parametric coordinates.

mtllib arrow.mtl
g default
v -0.951057 2.831928 -0.052290
v -0.809018 2.831928 -0.099462
v -0.587786 2.831928 -0.136898
v -0.309017 2.831928 -0.160933
v 0.000000 2.831928 -0.169215
v 0.309017 2.831928 -0.160933
v 0.587785 2.831928 -0.136898
v 0.809017 2.831928 -0.099462
v 0.951057 2.831928 -0.052290
v 1.000000 2.831928 0.000000
v 0.951057 2.831928 0.052290
v 0.809017 2.831928 0.099462
v 0.587785 2.831928 0.136898
v 0.309017 2.831928 0.160933
v 0.000000 2.831928 0.169215
v -0.309017 2.831928 0.160933
v -0.587785 2.831928 0.136898
v -0.809017 2.831928 0.099462
v -0.951057 2.831928 0.052290
v -1.000000 2.831928 0.000000
v -0.000000 0.831928 0.000000
vt 0.737764 0.172746
vt 0.702254 0.103054
vt 0.646946 0.047746
vt 0.577254 0.012236
vt 0.500000 -0.000000
vt 0.422746 0.012236
vt 0.353054 0.047746
vt 0.297746 0.103054
vt 0.262236 0.172746
vt 0.250000 0.250000
vt 0.262236 0.327254
vt 0.297746 0.396946
vt 0.353054 0.452254
vt 0.422746 0.487764
vt 0.500000 0.500000
vt 0.577254 0.487764
vt 0.646946 0.452254
vt 0.702254 0.396946
vt 0.737764 0.327254
vt 0.750000 0.250000
vt 0.250000 0.500000
vt 0.275000 0.500000
vt 0.300000 0.500000
vt 0.325000 0.500000
vt 0.350000 0.500000
vt 0.375000 0.500000
vt 0.400000 0.500000
vt 0.425000 0.500000
vt 0.450000 0.500000
vt 0.475000 0.500000
vt 0.500000 0.500000
vt 0.525000 0.500000
vt 0.550000 0.500000
vt 0.575000 0.500000
vt 0.600000 0.500000
vt 0.625000 0.500000
vt 0.650000 0.500000
vt 0.675000 0.500000
vt 0.700000 0.500000
vt 0.725000 0.500000
vt 0.750000 0.500000
vt 0.500000 1.000000
vn 0.000000 1.000000 -0.000000
vn 0.000000 1.000000 -0.000000
vn 0.000000 1.000000 -0.000000
vn 0.000000 1.000000 -0.000000
vn 0.000000 1.000000 -0.000000
vn 0.000000 1.000000 -0.000000
vn 0.000000 1.000000 -0.000000
vn 0.000000 1.000000 -0.000000
vn 0.000000 1.000000 -0.000000
vn 0.000000 1.000000 -0.000000
vn 0.000000 1.000000 -0.000000
vn 0.000000 1.000000 -0.000000
vn 0.000000 1.000000 -0.000000
vn 0.000000 1.000000 -0.000000
vn 0.000000 1.000000 -0.000000
vn 0.000000 1.000000 -0.000000
vn 0.000000 1.000000 -0.000000
vn 0.000000 1.000000 -0.000000
vn 0.000000 1.000000 -0.000000
vn 0.000000 1.000000 -0.000000
vn -0.448860 -0.235980 -0.861881
vn -0.224636 -0.138833 -0.964502
vn 0.000000 -1.000000 -0.000006
vn -0.121371 -0.103244 -0.987223
vn -0.054683 -0.088479 -0.994576
vn 0.000000 -0.084306 -0.996440
vn 0.054683 -0.088479 -0.994576
vn 0.121371 -0.103244 -0.987223
vn 0.224636 -0.138833 -0.964502
vn 0.448859 -0.235979 -0.861882
vn 0.894427 -0.447214 0.000000
vn 0.448858 -0.235979 0.861882
vn 0.224636 -0.138833 0.964502
vn 0.121371 -0.103244 0.987223
vn 0.054683 -0.088479 0.994576
vn -0.000000 -0.084306 0.996440
vn -0.054683 -0.088479 0.994576
vn -0.121371 -0.103244 0.987223
vn -0.224636 -0.138833 0.964502
vn -0.448859 -0.235979 0.861882
vn -0.894427 -0.447214 0.000005
s off
g pCone1
usemtl initialShadingGroup
f 1/1/1 20/20/2 19/19/3 18/18/4 17/17/5 16/16/6 15/15/7 14/14/8 13/13/9 12/12/10 11/11/11 10/10/12 9/9/13 8/8/14 7/7/15 6/6/16 5/5/17 4/4/18 3/3/19 2/2/20
s 1
f 1/21/21 2/22/22 21/42/23
f 2/22/22 3/23/24 21/42/23
f 3/23/24 4/24/25 21/42/23
f 4/24/25 5/25/26 21/42/23
f 5/25/26 6/26/27 21/42/23
f 6/26/27 7/27/28 21/42/23
f 7/27/28 8/28/29 21/42/23
f 8/28/29 9/29/30 21/42/23
f 9/29/30 10/30/31 21/42/23
f 10/30/31 11/31/32 21/42/23
f 11/31/32 12/32/33 21/42/23
f 12/32/33 13/33/34 21/42/23
f 13/33/34 14/34/35 21/42/23
f 14/34/35 15/35/36 21/42/23
f 15/35/36 16/36/37 21/42/23
f 16/36/37 17/37/38 21/42/23
f 17/37/38 18/38/39 21/42/23
f 18/38/39 19/39/40 21/42/23
f 19/39/40 20/40/41 21/42/23
f 20/40/41 1/41/21 21/42/23
g default
v 0.296241 2.802883 -0.046674
v 0.251997 2.802883 -0.088779
v 0.183087 2.802883 -0.122194
v 0.096254 2.802883 -0.143648
v 0.000000 2.802883 -0.151040
v -0.096254 2.802883 -0.143648
v -0.183087 2.802883 -0.122194
v -0.251997 2.802883 -0.088779
v -0.296241 2.802883 -0.046674
v -0.311486 2.802883 0.000000
v -0.296241 2.802883 0.046674
v -0.251997 2.802883 0.088779
v -0.183087 2.802883 0.122194
v -0.096254 2.802883 0.143648
v -0.000000 2.802883 0.151040
v 0.096254 2.802883 0.143648
v 0.183087 2.802883 0.122194
v 0.251997 2.802883 0.088779
v 0.296240 2.802883 0.046674
v 0.311486 2.802883 0.000000
v 0.296241 7.261415 -0.046674
v 0.251997 7.261415 -0.088779
v 0.183087 7.261415 -0.122194
v 0.096254 7.261415 -0.143648
v 0.000000 7.261415 -0.151040
v -0.096254 7.261415 -0.143648
v -0.183087 7.261415 -0.122194
v -0.251997 7.261415 -0.088779
v -0.296241 7.261415 -0.046674
v -0.311486 7.261415 0.000000
v -0.296241 7.261415 0.046674
v -0.251997 7.261415 0.088779
v -0.183087 7.261415 0.122194
v -0.096254 7.261415 0.143648
v -0.000000 7.261415 0.151040
v 0.096254 7.261415 0.143648
v 0.183087 7.261415 0.122194
v 0.251997 7.261415 0.088779
v 0.296240 7.261415 0.046674
v 0.311486 7.261415 0.000000
v 0.000000 2.802883 0.000000
v 0.000000 7.261415 0.000000
vt 0.648603 0.107966
vt 0.626409 0.064408
vt 0.591842 0.029841
vt 0.548284 0.007647
vt 0.500000 -0.000000
vt 0.451716 0.007647
vt 0.408159 0.029841
vt 0.373591 0.064409
vt 0.351397 0.107966
vt 0.343750 0.156250
vt 0.351397 0.204534
vt 0.373591 0.248091
vt 0.408159 0.282659
vt 0.451716 0.304853
vt 0.500000 0.312500
vt 0.548284 0.304853
vt 0.591841 0.282659
vt 0.626409 0.248091
vt 0.648603 0.204534
vt 0.656250 0.156250
vt 0.375000 0.312500
vt 0.387500 0.312500
vt 0.400000 0.312500
vt 0.412500 0.312500
vt 0.425000 0.312500
vt 0.437500 0.312500
vt 0.450000 0.312500
vt 0.462500 0.312500
vt 0.475000 0.312500
vt 0.487500 0.312500
vt 0.500000 0.312500
vt 0.512500 0.312500
vt 0.525000 0.312500
vt 0.537500 0.312500
vt 0.550000 0.312500
vt 0.562500 0.312500
vt 0.575000 0.312500
vt 0.587500 0.312500
vt 0.600000 0.312500
vt 0.612500 0.312500
vt 0.625000 0.312500
vt 0.375000 0.687500
vt 0.387500 0.687500
vt 0.400000 0.687500
vt 0.412500 0.687500
vt 0.425000 0.687500
vt 0.437500 0.687500
vt 0.450000 0.687500
vt 0.462500 0.687500
vt 0.475000 0.687500
vt 0.487500 0.687500
vt 0.500000 0.687500
vt 0.512500 0.687500
vt 0.525000 0.687500
vt 0.537500 0.687500
vt 0.550000 0.687500
vt 0.562500 0.687500
vt 0.575000 0.687500
vt 0.587500 0.687500
vt 0.600000 0.687500
vt 0.612500 0.687500
vt 0.625000 0.687500
vt 0.648603 0.795466
vt 0.626409 0.751908
vt 0.591842 0.717341
vt 0.548284 0.695147
vt 0.500000 0.687500
vt 0.451716 0.695147
vt 0.408159 0.717341
vt 0.373591 0.751909
vt 0.351397 0.795466
vt 0.343750 0.843750
vt 0.351397 0.892034
vt 0.373591 0.935591
vt 0.408159 0.970159
vt 0.451716 0.992353
vt 0.500000 1.000000
vt 0.548284 0.992353
vt 0.591841 0.970159
vt 0.626409 0.935591
vt 0.648603 0.892034
vt 0.656250 0.843750
vt 0.500000 0.156250
vt 0.500000 0.843750
vn 0.830744 0.000000 -0.556655
vn 0.555129 0.000000 -0.831764
vn 0.555129 0.000000 -0.831764
vn 0.830744 0.000000 -0.556655
vn 0.332285 0.000000 -0.943179
vn 0.332285 0.000000 -0.943179
vn 0.155635 0.000000 -0.987815
vn 0.155635 0.000000 -0.987815
vn -0.000000 0.000000 -1.000000
vn -0.000000 0.000000 -1.000000
vn -0.155635 0.000000 -0.987815
vn -0.155635 0.000000 -0.987815
vn -0.332285 0.000000 -0.943179
vn -0.332285 0.000000 -0.943179
vn -0.555130 0.000000 -0.831764
vn -0.555130 0.000000 -0.831764
vn -0.830743 0.000000 -0.556657
vn -0.830743 0.000000 -0.556657
vn -1.000000 0.000000 0.000000
vn -1.000000 0.000000 0.000000
vn -0.830743 0.000000 0.556657
vn -0.830743 0.000000 0.556657
vn -0.555129 0.000000 0.831764
vn -0.555129 0.000000 0.831764
vn -0.332285 0.000000 0.943179
vn -0.332285 0.000000 0.943179
vn -0.155635 0.000000 0.987815
vn -0.155635 0.000000 0.987815
vn 0.000000 0.000000 1.000000
vn 0.000000 0.000000 1.000000
vn 0.155635 0.000000 0.987815
vn 0.155635 0.000000 0.987815
vn 0.332285 0.000000 0.943179
vn 0.332285 0.000000 0.943179
vn 0.555129 0.000000 0.831764
vn 0.555129 0.000000 0.831764
vn 0.830743 0.000000 0.556657
vn 0.830743 0.000000 0.556657
vn 1.000000 0.000000 0.000002
vn 1.000000 0.000000 0.000002
vn 0.000000 -1.000000 0.000000
vn 0.000000 -1.000000 0.000000
vn 0.000000 -1.000000 0.000000
vn 0.000000 -1.000000 0.000000
vn 0.000000 -1.000000 0.000000
vn 0.000000 -1.000000 0.000000
vn 0.000000 -1.000000 0.000000
vn 0.000000 -1.000000 0.000000
vn 0.000000 -1.000000 0.000000
vn 0.000000 -1.000000 0.000000
vn 0.000000 -1.000000 0.000000
vn 0.000000 -1.000000 0.000000
vn 0.000000 -1.000000 0.000000
vn 0.000000 -1.000000 0.000000
vn 0.000000 -1.000000 0.000000
vn 0.000000 -1.000000 0.000000
vn 0.000000 -1.000000 0.000000
vn 0.000000 -1.000000 0.000000
vn 0.000000 -1.000000 0.000000
vn 0.000000 -1.000000 0.000000
vn 0.000000 -1.000000 0.000000
vn 0.000000 1.000000 0.000000
vn 0.000000 1.000000 0.000000
vn 0.000000 1.000000 0.000000
vn 0.000000 1.000000 0.000000
vn 0.000000 1.000000 0.000000
vn 0.000000 1.000000 0.000000
vn 0.000000 1.000000 0.000000
vn 0.000000 1.000000 0.000000
vn 0.000000 1.000000 0.000000
vn 0.000000 1.000000 0.000000
vn 0.000000 1.000000 0.000000
vn 0.000000 1.000000 0.000000
vn 0.000000 1.000000 0.000000
vn 0.000000 1.000000 0.000000
vn 0.000000 1.000000 0.000000
vn 0.000000 1.000000 0.000000
vn 0.000000 1.000000 0.000000
vn 0.000000 1.000000 0.000000
vn 0.000000 1.000000 0.000000
vn 0.000000 1.000000 0.000000
vn 0.000000 1.000000 0.000000
s 1
g pCylinder1
usemtl initialShadingGroup
f 22/63/42 23/64/43 43/85/44 42/84/45
f 23/64/43 24/65/46 44/86/47 43/85/44
f 24/65/46 25/66/48 45/87/49 44/86/47
f 25/66/48 26/67/50 46/88/51 45/87/49
f 26/67/50 27/68/52 47/89/53 46/88/51
f 27/68/52 28/69/54 48/90/55 47/89/53
f 28/69/54 29/70/56 49/91/57 48/90/55
f 29/70/56 30/71/58 50/92/59 49/91/57
f 30/71/58 31/72/60 51/93/61 50/92/59
f 31/72/60 32/73/62 52/94/63 51/93/61
f 32/73/62 33/74/64 53/95/65 52/94/63
f 33/74/64 34/75/66 54/96/67 53/95/65
f 34/75/66 35/76/68 55/97/69 54/96/67
f 35/76/68 36/77/70 56/98/71 55/97/69
f 36/77/70 37/78/72 57/99/73 56/98/71
f 37/78/72 38/79/74 58/100/75 57/99/73
f 38/79/74 39/80/76 59/101/77 58/100/75
f 39/80/76 40/81/78 60/102/79 59/101/77
f 40/81/78 41/82/80 61/103/81 60/102/79
f 41/82/80 22/83/42 42/104/45 61/103/81
s 2
f 23/44/82 22/43/83 62/125/84
f 24/45/85 23/44/82 62/125/84
f 25/46/86 24/45/85 62/125/84
f 26/47/87 25/46/86 62/125/84
f 27/48/88 26/47/87 62/125/84
f 28/49/89 27/48/88 62/125/84
f 29/50/90 28/49/89 62/125/84
f 30/51/91 29/50/90 62/125/84
f 31/52/92 30/51/91 62/125/84
f 32/53/93 31/52/92 62/125/84
f 33/54/94 32/53/93 62/125/84
f 34/55/95 33/54/94 62/125/84
f 35/56/96 34/55/95 62/125/84
f 36/57/97 35/56/96 62/125/84
f 37/58/98 36/57/97 62/125/84
f 38/59/99 37/58/98 62/125/84
f 39/60/100 38/59/99 62/125/84
f 40/61/101 39/60/100 62/125/84
f 41/62/102 40/61/101 62/125/84
f 22/43/83 41/62/102 62/125/84
s 3
f 42/123/103 43/122/104 63/126/105
f 43/122/104 44/121/106 63/126/105
f 44/121/106 45/120/107 63/126/105
f 45/120/107 46/119/108 63/126/105
f 46/119/108 47/118/109 63/126/105
f 47/118/109 48/117/110 63/126/105
f 48/117/110 49/116/111 63/126/105
f 49/116/111 50/115/112 63/126/105
f 50/115/112 51/114/113 63/126/105
f 51/114/113 52/113/114 63/126/105
f 52/113/114 53/112/115 63/126/105
f 53/112/115 54/111/116 63/126/105
f 54/111/116 55/110/117 63/126/105
f 55/110/117 56/109/118 63/126/105
f 56/109/118 57/108/119 63/126/105
f 57/108/119 58/107/120 63/126/105
f 58/107/120 59/106/121 63/126/105
f 59/106/121 60/105/122 63/126/105
f 60/105/122 61/124/123 63/126/105
f 61/124/123 42/123/103 63/126/105
